<?xml version="1.0" encoding="UTF-8"?>
<svg version="1.1" xmlns="http://www.w3.org/2000/svg" width="512" height="512">
<path d="M0 0 C37.61939795 33.23868203 46.19897045 89.03446181 49.39871216 136.44181824 C49.90425113 144.77492628 50.26475764 153.104939 50.5234375 161.44921875 C50.54456667 162.12343872 50.56569584 162.79765869 50.58746529 163.49230957 C50.9405437 174.94163349 51.12860693 186.38979569 51.24609375 197.84375 C51.25866117 199.04551156 51.25866117 199.04551156 51.27148247 200.27155113 C51.34796992 207.66289823 51.41877385 215.05428464 51.47680664 222.44580078 C50.02056969 296.22139528 50.02056969 296.22139528 80 361 C80 361.66 80 362.32 80 363 C80.86625 363.40412109 80.86625 363.40412109 81.75 363.81640625 C84.02701378 365.01421038 85.93837675 366.40299633 88 367.9375 C95.67902179 373.0736326 104.1512339 374.80463527 113.27734375 373.5703125 C124.19828848 371.28271145 133.49581976 366.31544297 141 358 C141.46921875 357.52304687 141.9384375 357.04609375 142.421875 356.5546875 C150.34030593 348.10564006 154.17994505 337.03617657 157 326 C157.3403125 324.67355469 157.3403125 324.67355469 157.6875 323.3203125 C158.33737633 320.20632175 158.70180597 317.169568 159 314 C159.0839502 313.15018555 159.16790039 312.30037109 159.25439453 311.42480469 C160.66622071 298.90695755 160.66622071 298.90695755 157.0703125 287.234375 C154.25462023 284.04270008 151.40070312 281.52850457 148 279 C146.84237746 278.08863116 145.68482675 277.17717106 144.52734375 276.265625 C140.77126607 273.38298282 136.89960975 270.68370199 133 268 C101.0680733 245.90710271 101.0680733 245.90710271 96.44140625 229.69921875 C94.37044015 217.03516939 95.44605963 205.96820424 102.9140625 195.25390625 C110.35857158 186.14453422 120.34483707 181.19244241 132 180 C141.66719448 179.24628653 150.30277991 180.85895701 158 187 C159.94131634 188.91775668 161.40589729 190.75829306 163 193 C163 193.66 163 194.32 163 195 C163.66 195 164.32 195 165 195 C165.165 194.319375 165.33 193.63875 165.5 192.9375 C169.38209759 185.33505889 177.35734472 181.14544656 185 178 C194.40529753 175.06316796 204.20925604 177.08029716 212.7890625 181.40625 C223.82649367 187.85235305 230.14840246 196.89970215 234 209 C236.28904518 220.47420113 235.35291535 231.57041769 228.859375 241.51171875 C221.31740066 251.604655 211.29207828 258.39987465 201.08251953 265.54150391 C196.67387979 268.62910224 192.3213327 271.79163375 188 275 C186.67548828 275.98033203 186.67548828 275.98033203 185.32421875 276.98046875 C184.45410156 277.64691406 183.58398438 278.31335938 182.6875 279 C181.92824219 279.5775 181.16898437 280.155 180.38671875 280.75 C173.87335998 286.89025311 171.37832519 291.30123442 170.96582031 300.38964844 C170.92086426 302.11489746 170.92086426 302.11489746 170.875 303.875 C169.66245019 327.69615052 164.34853482 353.07439321 145.890625 369.92578125 C133.81061618 380.13992884 120.06514597 385.73621991 104.16015625 385.28125 C90.91704944 384.10262986 79.31212437 377.80050772 70.32421875 368.1171875 C34.99896193 325.73216259 40.7331341 261.28674853 40 209.6875 C41.68050188 102.19138699 41.68050188 102.19138699 -6 10 C-20.88005335 -4.21661148 -39.79207466 -11.68798832 -60.30883789 -11.47094727 C-74.32859914 -10.99075739 -86.39922852 -6.10969781 -96.25 4.0625 C-104.65325499 14.19481981 -109.6275809 26.18200031 -108.6875 39.375 C-108.42833067 41.92630323 -108.18079864 44.35666834 -107.48667908 46.82653809 C-106.90818115 49.41005415 -106.85275968 51.79141944 -106.82641602 54.43945312 C-106.81292618 55.52738159 -106.79943634 56.61531006 -106.78553772 57.73620605 C-106.76988014 59.49100281 -106.76988014 59.49100281 -106.75390625 61.28125 C-106.72097951 63.75651411 -106.68776767 66.23177444 -106.65429688 68.70703125 C-106.60680583 72.61113994 -106.56234724 76.51523203 -106.52319336 80.41943359 C-106.48354746 84.18603141 -106.43199731 87.95232111 -106.37890625 91.71875 C-106.3704921 92.8886145 -106.36207794 94.058479 -106.35340881 95.26379395 C-106.33676682 96.35172241 -106.32012482 97.43965088 -106.30297852 98.56054688 C-106.28751732 99.99472961 -106.28751732 99.99472961 -106.27174377 101.45788574 C-105.98409342 104.14880319 -105.53235884 105.77330429 -104 108 C-100.68190536 109.26006315 -100.68190536 109.26006315 -97 109 C-93.55208619 106.60145126 -92.25788661 104.92102359 -91.125 100.875 C-91.0202287 97.62708981 -91.23126862 94.82854165 -91.625 91.625 C-92.17567215 86.21501822 -91.8658733 81.73065387 -89 77 C-85.74332148 73.8944045 -82.74352595 73.07561281 -78.3125 72.625 C-75.25593253 72.97102651 -73.48854202 73.24880377 -71 75 C-68.78867101 78.31699349 -68.78296584 79.17685118 -68.91015625 83.0078125 C-68.93013672 83.99523437 -68.95011719 84.98265625 -68.97070312 86 C-69.03121668 88.0600358 -69.09621618 90.11994542 -69.16601562 92.1796875 C-69.34167598 101.53208706 -67.88240306 109.08096076 -61.33203125 116.03125 C-55.48511037 120.96734401 -48.3788383 124.32590438 -41.5546875 127.70703125 C-30.16785674 133.45428507 -21.52184039 140.81871567 -17 153 C-11.47993189 169.86299288 -12.39929725 186.27385052 -14.71621704 203.60690308 C-18.95272065 235.60050088 -17.69403932 266.54749231 -12.06640625 298.296875 C-10.58249147 306.76008129 -9.70293219 314.95532229 -9.625 323.5625 C-9.61114258 324.45517578 -9.59728516 325.34785156 -9.58300781 326.26757812 C-9.66196343 337.3795419 -13.00558823 346.86469394 -20.828125 354.87109375 C-33.78959584 365.97739224 -52.32805281 369.89567818 -68.29501343 374.86993408 C-73.05281348 376.3613617 -77.78029398 377.92843333 -82.49911499 379.5388031 C-85.90800719 380.69922151 -89.32456913 381.83600485 -92.74212646 382.97061157 C-94.39816505 383.52654061 -96.05084556 384.09258744 -97.69976807 384.66928101 C-100.02581133 385.4807666 -102.36180406 386.25343459 -104.703125 387.01953125 C-105.71718918 387.38886276 -105.71718918 387.38886276 -106.7517395 387.76565552 C-113.03804829 389.74916747 -117.91035661 388.07267452 -124 386 C-124.89615021 385.70931137 -125.79230042 385.41862274 -126.71560669 385.11912537 C-129.51723983 384.19693071 -132.30409392 383.23860235 -135.08984375 382.26953125 C-136.11445206 381.91541672 -137.13906036 381.56130219 -138.19471741 381.19645691 C-140.35253071 380.44944626 -142.50970399 379.70058448 -144.66625977 378.94995117 C-147.89584514 377.82698391 -151.12840415 376.71292276 -154.36132812 375.59960938 C-164.36489709 372.13834923 -174.32247833 368.58629754 -184.16796875 364.6953125 C-184.97185532 364.38080643 -185.77574188 364.06630035 -186.60398865 363.74226379 C-198.09480018 359.1170339 -206.34579814 352.52647101 -211.3125 340.9375 C-214.64989796 326.67770872 -212.4805634 312.70647395 -210.47949219 298.42333984 C-209.77656907 293.40481239 -209.08709869 288.38449154 -208.40722656 283.36279297 C-208.06221053 280.81822063 -207.71286852 278.27422961 -207.35839844 275.73095703 C-204.14543955 252.11922237 -204.94898065 229.9201153 -207.80078125 206.375 C-207.93701904 205.23482422 -208.07325684 204.09464844 -208.21362305 202.91992188 C-208.47983818 200.70678144 -208.75298213 198.4944588 -209.03442383 196.28320312 C-211.43415031 176.5174817 -210.07406486 156.56080687 -198 140 C-191.81306659 133.40233945 -184.61044518 129.26797473 -176.625 125.1875 C-174.48971215 124.08158927 -172.35678321 122.97110869 -170.2265625 121.85546875 C-168.82784912 121.13846802 -168.82784912 121.13846802 -167.40087891 120.40698242 C-165.19676624 119.11531054 -163.76969297 117.80130652 -162 116 C-161.34 116 -160.68 116 -160 116 C-159.57074219 115.12988281 -159.57074219 115.12988281 -159.1328125 114.2421875 C-158.43194477 112.85495274 -157.70262437 111.48122062 -156.9296875 110.1328125 C-152.78955545 102.25122778 -152.66003321 93.07883056 -155.0625 84.5625 C-156.10726985 80.59237457 -155.95291695 77.97048729 -155 74 C-152.64979502 71.64979502 -152.08090378 71.68085198 -148.875 71.625 C-143.85741988 71.75427743 -140.05909248 73.04292358 -136 76 C-130.62608403 82.06287956 -130.95832922 88.4731829 -131.0625 96.125 C-131.11226829 100.49355018 -130.80281593 103.94366417 -129 108 C-126.36 108.33 -123.72 108.66 -121 109 C-119.17416264 105.12310009 -118.80895625 102.2860049 -119.0234375 98.0234375 C-119.07532227 96.8159082 -119.12720703 95.60837891 -119.18066406 94.36425781 C-119.27686035 92.3895752 -119.27686035 92.3895752 -119.375 90.375 C-119.49191063 87.50294658 -119.59526715 84.63049894 -119.6953125 81.7578125 C-119.7221814 80.99247192 -119.74905029 80.22713135 -119.7767334 79.43859863 C-120.08009767 70.32512701 -120.19294919 61.21120226 -120.23419189 52.09307861 C-120.24463403 50.21506709 -120.2607614 48.33707757 -120.28289795 46.45916748 C-120.50646935 26.77653913 -117.2868055 9.83015066 -103.33447266 -4.93554688 C-74.06461233 -34.19545485 -28.69378911 -24.54707378 0 0 Z " fill="#E2D1F5" transform="translate(245,73)"/>
<path d="M0 0 C1.13695312 0.37382812 2.27390625 0.74765625 3.4453125 1.1328125 C20.23561094 7.01526045 32.01381131 17.17441316 40.0239563 33.02639771 C44.07429394 42.37333971 43.46909852 51.71436135 43.3203125 61.69140625 C43.30773692 63.60553258 43.29726838 65.51967378 43.28878784 67.43382263 C43.26231499 72.45598663 43.21355859 77.47765434 43.15808105 82.49957275 C43.07157467 90.50907476 43.01175372 98.51868806 42.9659996 106.52851677 C42.94592517 109.29448932 42.91178166 112.06001338 42.87600708 114.82582092 C42.75870268 127.14846683 43.52274702 139.15568834 45.55513 151.32356262 C46.40342333 156.42708498 46.26890154 161.5879428 46.3125 166.75 C46.34150391 167.87921875 46.37050781 169.0084375 46.40039062 170.171875 C46.46917353 179.31470972 45.2455785 186.89926194 38.8125 193.75 C34.86897867 197.33273108 30.52855941 200.21358502 26 203 C25.16041748 203.51763916 24.32083496 204.03527832 23.45581055 204.56860352 C20.98389724 206.06988622 18.49826973 207.54306416 16 209 C15.35498535 209.37753418 14.7099707 209.75506836 14.04541016 210.14404297 C3.24557705 216.27592512 -8.37328358 218.35349572 -20.46728516 220.53857422 C-22.16407392 220.84770578 -23.85637466 221.18250473 -25.54321289 221.54199219 C-48.92632684 225.90120135 -70.48894381 216.48257942 -89.6015625 203.76953125 C-97.75864746 197.75135619 -104.00980235 190.17873043 -106 180 C-106.07320818 177.70288414 -106.08682043 175.40365582 -106.06591797 173.10546875 C-106.06124512 172.41834305 -106.05657227 171.73121735 -106.05175781 171.02326965 C-106.04126404 169.52990133 -106.02860422 168.03654701 -106.01403427 166.54321289 C-105.99183276 164.14924872 -105.97786073 161.75536629 -105.96633911 159.36132812 C-105.93298267 152.55278405 -105.89257998 145.74436665 -105.82861328 138.93603516 C-105.65713798 120.07767832 -105.86259434 101.6542528 -108.31152344 82.92578125 C-111.19864724 60.31258168 -108.15474036 40.04179126 -94.1875 21.5625 C-71.61115274 -4.55780874 -31.95953699 -11.72616105 0 0 Z " fill="#FE5F6E" transform="translate(165,213)"/>
<path d="M0 0 C37.61939795 33.23868203 46.19897045 89.03446181 49.39871216 136.44181824 C49.90425113 144.77492628 50.26475764 153.104939 50.5234375 161.44921875 C50.54456667 162.12343872 50.56569584 162.79765869 50.58746529 163.49230957 C50.9405437 174.94163349 51.12860693 186.38979569 51.24609375 197.84375 C51.25447203 198.64492437 51.2628503 199.44609875 51.27148247 200.27155113 C51.34796992 207.66289823 51.41877385 215.05428464 51.47680664 222.44580078 C50.02056969 296.22139528 50.02056969 296.22139528 80 361 C80 361.66 80 362.32 80 363 C80.5775 363.26941406 81.155 363.53882813 81.75 363.81640625 C84.02701378 365.01421038 85.93837675 366.40299633 88 367.9375 C95.67902179 373.0736326 104.1512339 374.80463527 113.27734375 373.5703125 C124.19828848 371.28271145 133.49581976 366.31544297 141 358 C141.46921875 357.52304687 141.9384375 357.04609375 142.421875 356.5546875 C150.34030593 348.10564006 154.17994505 337.03617657 157 326 C157.3403125 324.67355469 157.3403125 324.67355469 157.6875 323.3203125 C158.33737633 320.20632175 158.70180597 317.169568 159 314 C159.0839502 313.15018555 159.16790039 312.30037109 159.25439453 311.42480469 C160.66622071 298.90695755 160.66622071 298.90695755 157.0703125 287.234375 C154.25462023 284.04270008 151.40070312 281.52850457 148 279 C146.84237746 278.08863116 145.68482675 277.17717106 144.52734375 276.265625 C140.77126607 273.38298282 136.89960975 270.68370199 133 268 C101.0680733 245.90710271 101.0680733 245.90710271 96.44140625 229.69921875 C94.37044015 217.03516939 95.44605963 205.96820424 102.9140625 195.25390625 C110.35857158 186.14453422 120.34483707 181.19244241 132 180 C141.66719448 179.24628653 150.30277991 180.85895701 158 187 C159.94131634 188.91775668 161.40589729 190.75829306 163 193 C163 193.66 163 194.32 163 195 C163.66 195 164.32 195 165 195 C165.165 194.319375 165.33 193.63875 165.5 192.9375 C169.38209759 185.33505889 177.35734472 181.14544656 185 178 C194.40529753 175.06316796 204.20925604 177.08029716 212.7890625 181.40625 C223.82649367 187.85235305 230.14840246 196.89970215 234 209 C236.28904518 220.47420113 235.35291535 231.57041769 228.859375 241.51171875 C221.31740066 251.604655 211.29207828 258.39987465 201.08251953 265.54150391 C196.67387979 268.62910224 192.3213327 271.79163375 188 275 C186.67548828 275.98033203 186.67548828 275.98033203 185.32421875 276.98046875 C184.45410156 277.64691406 183.58398438 278.31335938 182.6875 279 C181.92824219 279.5775 181.16898437 280.155 180.38671875 280.75 C173.87335998 286.89025311 171.37832519 291.30123442 170.96582031 300.38964844 C170.92086426 302.11489746 170.92086426 302.11489746 170.875 303.875 C169.66245019 327.69615052 164.34853482 353.07439321 145.890625 369.92578125 C133.81061618 380.13992884 120.06514597 385.73621991 104.16015625 385.28125 C90.91704944 384.10262986 79.31212437 377.80050772 70.32421875 368.1171875 C34.99896193 325.73216259 40.7331341 261.28674853 40 209.6875 C41.68050188 102.19138699 41.68050188 102.19138699 -6 10 C-20.88005335 -4.21661148 -39.79207466 -11.68798832 -60.30883789 -11.47094727 C-74.32859914 -10.99075739 -86.39922852 -6.10969781 -96.25 4.0625 C-106.53248223 16.46071932 -109.62959723 29.3268232 -108.2890625 45.0703125 C-108.19367188 46.03710938 -108.09828125 47.00390625 -108 48 C-108.87398437 47.26330078 -108.87398437 47.26330078 -109.765625 46.51171875 C-112.87044758 44.4110783 -115.339085 44.78879337 -119 45 C-122.44162225 38.11675551 -120.14439025 27.18240308 -118.08984375 20.0625 C-111.93673995 2.77205778 -101.96138457 -8.82697098 -85.58984375 -17.23828125 C-56.60608256 -30.90986672 -23.11418863 -19.77381556 0 0 Z " fill="#FE5F6E" transform="translate(245,73)"/>
<path d="M0 0 C37.61939795 33.23868203 46.19897045 89.03446181 49.39871216 136.44181824 C49.90425113 144.77492628 50.26475764 153.104939 50.5234375 161.44921875 C50.54456667 162.12343872 50.56569584 162.79765869 50.58746529 163.49230957 C50.9405437 174.94163349 51.12860693 186.38979569 51.24609375 197.84375 C51.25447203 198.64492437 51.2628503 199.44609875 51.27148247 200.27155113 C51.34796992 207.66289823 51.41877385 215.05428464 51.47680664 222.44580078 C50.02056969 296.22139528 50.02056969 296.22139528 80 361 C80 361.66 80 362.32 80 363 C80.5775 363.26941406 81.155 363.53882813 81.75 363.81640625 C84.02701378 365.01421038 85.93837675 366.40299633 88 367.9375 C95.67902179 373.0736326 104.1512339 374.80463527 113.27734375 373.5703125 C124.19828848 371.28271145 133.49581976 366.31544297 141 358 C141.46921875 357.52304687 141.9384375 357.04609375 142.421875 356.5546875 C158.52909141 339.36812154 159.27339629 314.12892267 160 292 C161.5 293.375 161.5 293.375 163 295 C163 295.66 163 296.32 163 297 C166.42559084 295.79641403 168.53258609 294.64107354 171 292 C171.70214809 318.79865222 167.37629693 346.36398792 148.5625 366.625 C147.716875 367.40875 146.87125 368.1925 146 369 C145.45085937 369.54269531 144.90171875 370.08539063 144.3359375 370.64453125 C134.22576365 380.19302878 121.24932587 384.98317515 107.4375 385.375 C94.31440099 384.99960742 82.62625091 379.94691851 73 371 C34.50508201 329.5266431 40.74292589 261.97591138 40 209.6875 C41.68050188 102.19138699 41.68050188 102.19138699 -6 10 C-20.88005335 -4.21661148 -39.79207466 -11.68798832 -60.30883789 -11.47094727 C-74.32859914 -10.99075739 -86.39922852 -6.10969781 -96.25 4.0625 C-106.53248223 16.46071932 -109.62959723 29.3268232 -108.2890625 45.0703125 C-108.19367188 46.03710938 -108.09828125 47.00390625 -108 48 C-108.87398437 47.26330078 -108.87398437 47.26330078 -109.765625 46.51171875 C-112.87044758 44.4110783 -115.339085 44.78879337 -119 45 C-122.44162225 38.11675551 -120.14439025 27.18240308 -118.08984375 20.0625 C-111.93673995 2.77205778 -101.96138457 -8.82697098 -85.58984375 -17.23828125 C-56.60608256 -30.90986672 -23.11418863 -19.77381556 0 0 Z " fill="#000000" transform="translate(245,73)"/>
<path d="M0 0 C0.75393539 -0.00414413 1.50787079 -0.00828827 2.28465271 -0.01255798 C4.74971304 -0.0222866 7.21461081 -0.02220709 9.6796875 -0.01953125 C10.93421219 -0.01962189 10.93421219 -0.01962189 12.21408081 -0.01971436 C26.07896371 -0.0054078 39.77364808 0.55988897 53.5546875 2.16796875 C55.50761719 2.36712891 55.50761719 2.36712891 57.5 2.5703125 C64.56723297 3.46436004 64.56723297 3.46436004 68.16381836 6.02709961 C71.68053571 10.64698817 71.20142143 14.62279733 71.078125 20.27734375 C71.07342194 21.3587262 71.06871887 22.44010864 71.06387329 23.55426025 C71.04254862 27.00947999 70.98600019 30.46316097 70.9296875 33.91796875 C70.91317447 36.22784996 70.89882793 38.53774775 70.88671875 40.84765625 C70.6859699 66.11109166 70.6859699 66.11109166 68.1796875 70.66796875 C65.44832366 73.18922768 62.73665756 73.30200668 59.1887207 73.37329102 C57.86376335 73.40320885 57.86376335 73.40320885 56.51203918 73.43373108 C55.55287094 73.45044357 54.5937027 73.46715607 53.60546875 73.484375 C52.09910103 73.51554665 52.09910103 73.51554665 50.56230164 73.54734802 C48.4212169 73.59067208 46.28008483 73.63170647 44.13891602 73.6706543 C40.95250612 73.72890894 37.76631698 73.79443526 34.58007812 73.86132812 C29.31777324 73.96822341 24.05545902 74.05087854 18.7925415 74.12091064 C16.5830995 74.15302208 14.37373896 74.19116462 12.16448975 74.23455811 C8.85058473 74.29853035 5.53692615 74.34276019 2.22265625 74.3828125 C1.2094783 74.40630264 0.19630035 74.42979279 -0.84757996 74.45399475 C-1.78709 74.46136154 -2.72660004 74.46872833 -3.69458008 74.47631836 C-4.51799393 74.48924423 -5.34140778 74.5021701 -6.18977356 74.51548767 C-9.12515842 74.06322247 -10.3598777 73.28494487 -12.4453125 71.16796875 C-14.2022567 67.14532559 -14.70525233 63.61950531 -14.75170898 59.2578125 C-14.76769638 58.11642822 -14.78368378 56.97504395 -14.80015564 55.79907227 C-14.80551834 54.58018311 -14.81088104 53.36129395 -14.81640625 52.10546875 C-14.82994896 50.20849243 -14.82994896 50.20849243 -14.84376526 48.27319336 C-14.85825056 45.60353331 -14.86794528 42.93430075 -14.87084961 40.26464844 C-14.87624201 36.8548168 -14.91397891 33.44616497 -14.95959377 30.03666687 C-14.99658551 26.76800489 -14.99788012 23.4993119 -15.00390625 20.23046875 C-15.02343857 19.01157959 -15.04297089 17.79269043 -15.06309509 16.53686523 C-15.0128719 7.10505815 -15.0128719 7.10505815 -12.03540039 3.4140625 C-7.99595385 -0.08889802 -5.14777234 0.00857012 0 0 Z " fill="#FEFCFD" transform="translate(105.4453125,284.83203125)"/>
<path d="M0 0 C3.5 0.25 3.5 0.25 5.5 2.25 C5.64497985 4.83064129 5.68677545 7.29943884 5.625 9.875 C5.61597656 10.58140625 5.60695313 11.2878125 5.59765625 12.015625 C5.57407603 13.76056098 5.53820461 15.50532295 5.5 17.25 C6.55960937 17.22679687 7.61921875 17.20359375 8.7109375 17.1796875 C10.0989513 17.16093056 11.4869727 17.14273028 12.875 17.125 C13.92300781 17.09986328 13.92300781 17.09986328 14.9921875 17.07421875 C16.82897486 17.05655733 18.66601963 17.14696739 20.5 17.25 C22.5 19.25 22.5 19.25 22.765625 21.125 C22.76046875 21.82625 22.7553125 22.5275 22.75 23.25 C22.75773437 24.301875 22.75773437 24.301875 22.765625 25.375 C22.5 27.25 22.5 27.25 20.5 29.25 C17.2421875 29.4453125 17.2421875 29.4453125 13.375 29.375 C11.45300781 29.34792969 11.45300781 29.34792969 9.4921875 29.3203125 C8.50476563 29.29710937 7.51734375 29.27390625 6.5 29.25 C6.54640625 30.14203125 6.5928125 31.0340625 6.640625 31.953125 C6.69476563 33.70882812 6.69476563 33.70882812 6.75 35.5 C6.79640625 36.66015625 6.8428125 37.8203125 6.890625 39.015625 C6.5 42.25 6.5 42.25 4.64453125 44.64453125 C2.5 46.25 2.5 46.25 -0.0625 46.6875 C-3.043282 46.15248785 -3.75757598 45.71342707 -5.5 43.25 C-5.79296875 39.89453125 -5.79296875 39.89453125 -5.6875 36.0625 C-5.66042969 34.79019531 -5.63335937 33.51789063 -5.60546875 32.20703125 C-5.57066406 31.23121094 -5.53585937 30.25539063 -5.5 29.25 C-6.47582031 29.28480469 -7.45164062 29.31960938 -8.45703125 29.35546875 C-10.36548828 29.39607422 -10.36548828 29.39607422 -12.3125 29.4375 C-14.20935547 29.48970703 -14.20935547 29.48970703 -16.14453125 29.54296875 C-19.5 29.25 -19.5 29.25 -21.4296875 27.9609375 C-23.21165077 25.11239767 -22.79566978 22.50236757 -22.5 19.25 C-20.5 17.25 -20.5 17.25 -17.0234375 17.0546875 C-15.64049032 17.06798507 -14.25761346 17.09183768 -12.875 17.125 C-11.81539063 17.13853516 -11.81539063 17.13853516 -10.734375 17.15234375 C-8.98943902 17.17592397 -7.24467705 17.21179539 -5.5 17.25 C-5.52320313 16.19039063 -5.54640625 15.13078125 -5.5703125 14.0390625 C-5.58906944 12.6510487 -5.60726972 11.2630273 -5.625 9.875 C-5.64175781 9.17632812 -5.65851563 8.47765625 -5.67578125 7.7578125 C-5.69344267 5.92102514 -5.60303261 4.08398037 -5.5 2.25 C-3.5 0.25 -3.5 0.25 0 0 Z " fill="#FFFAFA" transform="translate(410.5,286.75)"/>
<path d="M0 0 C1.79296875 0.03125 1.79296875 0.03125 4 1 C5.28158693 3.50940099 6.31671257 5.88103507 7.3125 8.5 C10.06003947 15.18988593 12.95275407 20.71680558 18 26 C18.71671875 26.75667969 19.4334375 27.51335937 20.171875 28.29296875 C28.49053259 36.40773768 38.43278101 40.51530986 49 45 C48.67 46.32 48.34 47.64 48 49 C32.09305921 46.57351751 18.79745928 36.34128454 9.04296875 23.9453125 C5.77629502 19.23580583 3.29101687 14.24304844 1 9 C0.60941406 8.10667969 0.21882813 7.21335937 -0.18359375 6.29296875 C-1.10455992 3.7063317 -0.93942468 2.53644663 0 0 Z " fill="#100606" transform="translate(72,376)"/>
<path d="M0 0 C1.9375 0.3125 1.9375 0.3125 4 1 C4.33 1.99 4.66 2.98 5 4 C9.00912164 6.24039151 12.47613936 6.4449699 17 6 C18.61997962 5.37273516 20.22361017 4.70229927 21.8125 4 C27.99639598 1.35110553 33.71899797 0.72777472 40.0625 3.1875 C42.41729253 5.39037043 42.74310052 6.83157307 43 10 C41.25 10.75 41.25 10.75 39 11 C38.4225 10.34 37.845 9.68 37.25 9 C35.05017331 6.59861351 35.05017331 6.59861351 31.375 7 C28.01505915 7.59440294 25.07186617 8.73146779 21.9375 10.0625 C17.71006252 11.81801602 14.63042998 12.77173833 10 12 C5.87334172 9.99036344 1.99020164 7.52450099 -1 4 C-0.6875 1.8125 -0.6875 1.8125 0 0 Z " fill="#0F0F0F" transform="translate(113,318)"/>
<path d="M0 0 C5.64357804 0.95762071 9.2946412 4.86660837 13 9 C19.31460252 18.88866754 19.31460252 18.88866754 18.6484375 23.359375 C18.43445313 23.90078125 18.22046875 24.4421875 18 25 C16.11328125 24.75390625 16.11328125 24.75390625 14 24 C12.98046875 22.21484375 12.98046875 22.21484375 12.1875 19.9375 C9.44960781 13.15228893 4.91408476 8.22805182 -1 4 C-0.67 2.68 -0.34 1.36 0 0 Z " fill="#120608" transform="translate(174,230)"/>
<path d="M0 0 C4.02920471 0.51610038 5.61139466 2.41673858 8.1875 5.4375 C8.88230469 6.24058594 9.57710938 7.04367187 10.29296875 7.87109375 C13.11598373 11.39178749 13.09700078 13.5379643 13 18 C11.1875 17.80078125 11.1875 17.80078125 9 17 C7.4375 14.85546875 7.4375 14.85546875 6 12.1875 C4.02261198 8.54975084 2.047626 5.81774042 -1 3 C-0.67 2.01 -0.34 1.02 0 0 Z " fill="#0C0405" transform="translate(447,272)"/>
</svg>
